<?xml version="1.0" standalone="no"?>
<!DOCTYPE svg PUBLIC "-//W3C//DTD SVG 20010904//EN"
 "http://www.w3.org/TR/2001/REC-SVG-20010904/DTD/svg10.dtd">
<svg version="1.0" xmlns="http://www.w3.org/2000/svg"
 width="366.000000pt" height="300.000000pt" viewBox="0 0 366.000000 300.000000"
 preserveAspectRatio="xMidYMid meet">

<g transform="translate(0.000000,300.000000) scale(0.100000,-0.100000)"
fill="#000000" stroke="none">
<path d="M2080 2654 c-172 -36 -376 -141 -567 -290 -99 -77 -113 -95 -42 -53
118 69 300 154 409 189 147 49 253 64 394 58 105 -5 177 -22 301 -73 36 -14
-86 103 -135 129 -100 54 -228 69 -360 40z"/>
<path d="M1622 2273 c-38 -19 -74 -63 -91 -112 -12 -38 -15 -210 -3 -196 4 6
18 42 30 81 46 148 111 177 207 92 48 -43 104 -59 130 -38 28 23 16 53 -42
110 -80 77 -159 99 -231 63z"/>
<path d="M2009 2221 c-40 -40 -40 -89 0 -133 25 -28 36 -33 76 -33 40 0 51 5
76 33 40 45 39 90 -2 131 -25 25 -39 31 -76 31 -36 0 -50 -6 -74 -29z"/>
<path d="M2408 2022 c-34 -61 -100 -130 -132 -138 -50 -12 -70 -1 -101 57 -40
74 -53 89 -81 89 -50 0 -58 -70 -16 -151 85 -168 286 -105 348 109 22 75 14
91 -18 34z"/>
<path d="M1576 1878 c-23 -32 -20 -54 14 -90 l29 -33 -202 -203 c-221 -223
-220 -221 -12 -102 130 74 226 133 297 183 56 39 57 40 82 23 14 -9 26 -21 26
-27 0 -23 -63 -68 -148 -106 -49 -21 -100 -46 -112 -54 -22 -14 -18 -15 56 -7
203 21 334 90 334 173 0 33 -56 113 -110 155 -21 16 -69 48 -106 70 -80 46
-125 52 -148 18z"/>
<path d="M851 1210 l-64 -5 -59 -130 c-33 -71 -64 -134 -69 -139 -5 -6 -9 21
-9 71 0 44 -3 108 -6 142 l-7 62 -65 -3 -65 -3 -44 -205 c-23 -113 -43 -211
-43 -217 0 -8 14 -13 39 -13 l40 0 10 53 c6 28 22 106 35 172 21 108 24 115
26 70 2 -27 5 -104 9 -170 l6 -120 45 0 45 0 75 167 c41 92 76 165 77 164 2
-1 -11 -65 -27 -142 -17 -76 -33 -152 -36 -167 -6 -28 -5 -28 37 -25 l44 3 37
205 c21 113 37 212 36 220 -3 12 -15 14 -67 10z"/>
<path d="M1545 1210 c-1 -3 -8 -30 -15 -60 -21 -97 -16 -92 -56 -68 -27 16
-46 19 -82 15 -105 -12 -174 -160 -127 -273 25 -60 108 -79 172 -38 20 12 22
12 17 -1 -5 -12 3 -15 38 -15 l44 0 47 218 c26 119 47 219 47 222 0 3 -18 5
-41 5 -22 0 -42 -2 -44 -5z m-83 -197 c36 -33 16 -147 -31 -173 -51 -27 -91 2
-91 67 0 95 68 155 122 106z"/>
<path d="M1676 1208 c-3 -7 -7 -25 -10 -40 -6 -27 -5 -28 38 -28 37 0 45 3 50
23 13 49 8 57 -34 57 -24 0 -42 -5 -44 -12z"/>
<path d="M1884 1210 c-11 -4 -33 -22 -47 -40 -21 -24 -27 -42 -27 -79 0 -60
17 -79 121 -131 66 -34 79 -44 79 -65 0 -71 -150 -75 -165 -4 -6 27 -10 29
-52 29 l-46 0 6 -36 c13 -80 71 -119 178 -118 107 0 169 53 169 142 0 54 -21
76 -115 125 -67 35 -81 46 -83 69 -7 60 104 65 134 6 14 -26 19 -29 46 -24 17
3 34 6 39 6 15 0 10 33 -10 66 -10 17 -34 38 -54 47 -37 18 -136 22 -173 7z"/>
<path d="M3110 1175 c0 -3 -13 -69 -30 -147 -36 -172 -37 -198 -7 -226 32 -30
127 -32 127 -3 0 11 3 26 6 35 5 13 -1 16 -30 16 -22 0 -39 6 -42 14 -3 7 3
46 14 87 17 71 20 74 49 77 22 2 33 9 37 25 12 45 7 57 -23 57 -28 0 -29 1
-21 35 l8 35 -44 0 c-24 0 -44 -2 -44 -5z"/>
<path d="M2950 1088 c-57 -29 -83 -80 -110 -212 -11 -54 -20 -100 -20 -102 0
-2 20 -4 44 -4 l44 0 12 68 c6 37 16 84 22 105 13 42 58 87 88 87 22 0 25 4
35 48 7 32 6 32 -32 32 -21 0 -59 -10 -83 -22z"/>
<path d="M1003 1075 c-59 -36 -87 -96 -81 -177 4 -54 8 -64 40 -93 65 -60 160
-55 219 12 l32 38 -37 8 c-32 8 -41 6 -61 -13 -33 -31 -85 -25 -103 13 -9 19
-11 32 -4 39 5 5 54 8 111 6 l101 -3 1 25 c3 44 -3 95 -13 113 -31 58 -134 74
-205 32z m119 -52 c8 -10 18 -28 21 -40 5 -22 3 -23 -63 -23 -63 0 -68 1 -63
20 7 25 49 60 73 60 9 0 24 -8 32 -17z"/>
<path d="M1650 1095 c0 -3 -13 -69 -30 -147 -16 -77 -30 -147 -30 -155 0 -10
11 -13 42 -11 l42 3 32 150 c18 83 33 153 33 158 1 4 -19 7 -44 7 -25 0 -45
-2 -45 -5z"/>
<path d="M2308 1084 c-16 -8 -28 -10 -28 -4 0 5 -20 10 -44 10 -42 0 -44 -1
-50 -37 -3 -21 -24 -120 -45 -221 l-38 -183 46 3 46 3 15 79 c13 68 17 77 28
63 20 -23 77 -40 112 -32 77 17 130 99 130 201 0 62 -2 68 -34 100 -27 27 -42
34 -72 34 -22 -1 -51 -8 -66 -16z m67 -69 c28 -27 30 -52 11 -108 -27 -75 -75
-98 -116 -57 -37 37 -18 139 31 174 32 22 46 20 74 -9z"/>
<path d="M2592 1083 c-111 -54 -137 -225 -45 -291 63 -44 154 -36 218 19 65
58 80 183 28 241 -42 47 -138 62 -201 31z m132 -75 c21 -29 20 -64 -3 -115
-31 -67 -84 -83 -120 -37 -12 15 -21 37 -21 51 0 32 27 95 47 111 28 20 80 15
97 -10z"/>
<path d="M1169 713 l-22 -98 -15 35 -14 34 -28 -34 -28 -34 -7 32 -7 32 -309
0 c-199 0 -309 -4 -309 -10 0 -6 107 -10 300 -10 l300 0 11 -27 c5 -16 12 -34
15 -42 3 -11 11 -6 27 17 12 17 25 32 28 32 3 0 11 -18 18 -40 12 -41 31 -63
31 -35 0 27 32 157 37 151 3 -2 18 -51 33 -108 25 -91 29 -100 38 -78 5 14 19
48 30 75 l20 50 361 3 c229 1 361 6 361 12 0 6 -132 10 -366 10 l-365 0 -21
-50 c-11 -27 -24 -50 -27 -50 -4 0 -20 52 -35 115 -15 63 -29 115 -31 115 -2
0 -13 -44 -26 -97z"/>
<path d="M2305 670 c-4 -7 153 -10 464 -10 307 0 471 3 471 10 0 7 -161 10
-464 10 -299 0 -467 -4 -471 -10z"/>
<path d="M722 424 c-24 -17 -30 -62 -10 -82 19 -19 55 -14 72 10 21 30 20 44
-4 68 -24 24 -29 24 -58 4z m48 -19 c6 -8 10 -22 8 -32 -5 -25 -51 -25 -56 0
-8 42 23 63 48 32z"/>
<path d="M1100 420 c-37 -37 -16 -90 35 -90 45 0 61 68 23 94 -29 20 -34 20
-58 -4z m55 -35 c0 -25 -4 -30 -25 -30 -28 0 -39 27 -19 51 20 24 44 13 44
-21z"/>
<path d="M1352 424 c-39 -27 -19 -94 28 -94 47 0 67 67 28 94 -12 9 -25 16
-28 16 -3 0 -16 -7 -28 -16z m48 -19 c19 -23 8 -50 -20 -50 -16 0 -26 6 -28
18 -4 18 14 47 28 47 4 0 13 -7 20 -15z"/>
<path d="M2080 420 c-24 -24 -25 -38 -4 -68 18 -26 46 -29 64 -7 16 19 5 34
-12 17 -18 -18 -36 -14 -43 9 -10 30 18 57 40 39 8 -7 19 -10 23 -6 7 8 -25
36 -40 36 -4 0 -17 -9 -28 -20z"/>
<path d="M2753 429 c-18 -6 -23 -16 -23 -42 0 -38 15 -57 46 -57 30 0 46 23
42 61 -3 36 -30 51 -65 38z m45 -47 c3 -29 1 -32 -22 -32 -22 0 -26 5 -26 28
0 33 8 44 30 40 9 -2 16 -16 18 -36z"/>
<path d="M420 380 l0 -50 45 0 c25 0 45 5 45 10 0 14 43 13 58 -2 17 -17 16
10 -3 56 -20 47 -39 46 -54 -4 -10 -35 -16 -40 -41 -40 -28 0 -30 2 -30 40 0
22 -4 40 -10 40 -5 0 -10 -22 -10 -50z m130 4 c0 -8 -4 -14 -10 -14 -5 0 -10
9 -10 21 0 11 5 17 10 14 6 -3 10 -13 10 -21z"/>
<path d="M600 380 l0 -51 38 3 c37 3 37 3 37 48 0 45 0 45 -37 48 l-38 3 0
-51z m53 25 c1 -5 -6 -11 -15 -13 -11 -2 -18 3 -18 13 0 17 30 18 33 0z m12
-40 c0 -5 -10 -11 -22 -13 -16 -2 -23 2 -23 13 0 11 7 15 23 13 12 -2 22 -7
22 -13z"/>
<path d="M810 386 c0 -25 5 -48 10 -51 6 -3 10 3 10 14 0 28 24 27 43 -1 8
-13 18 -20 23 -15 4 4 3 12 -3 18 -6 6 -9 26 -6 45 l6 34 -42 0 -41 0 0 -44z
m61 19 c0 -5 -9 -11 -21 -13 -20 -3 -27 8 -13 22 10 9 34 3 34 -9z"/>
<path d="M930 405 c-5 -14 -13 -38 -16 -53 -5 -22 -4 -25 7 -14 7 6 23 12 35
12 12 0 24 -6 27 -12 2 -7 7 -10 11 -7 10 9 -27 99 -41 99 -8 0 -18 -11 -23
-25z m28 -34 c-15 -5 -21 7 -13 26 7 17 8 17 15 -2 4 -11 3 -22 -2 -24z"/>
<path d="M1013 423 c13 -3 17 -15 17 -49 0 -24 5 -44 10 -44 6 0 10 20 10 44
0 34 4 46 18 49 9 3 -3 5 -28 5 -25 0 -37 -2 -27 -5z"/>
<path d="M1200 379 c0 -31 4 -48 10 -44 6 3 10 13 10 21 0 21 17 17 34 -8 18
-26 32 -18 17 10 -7 13 -7 22 1 30 20 20 1 42 -37 42 l-35 0 0 -51z m53 26 c1
-5 -6 -11 -15 -13 -11 -2 -18 3 -18 13 0 17 30 18 33 0z"/>
<path d="M1290 386 c0 -25 5 -48 10 -51 6 -4 10 13 10 44 0 28 -4 51 -10 51
-5 0 -10 -20 -10 -44z"/>
<path d="M1480 385 c0 -50 12 -62 55 -51 28 7 44 50 28 75 -6 9 -26 17 -47 19
l-36 3 0 -46z m63 13 c14 -22 1 -48 -23 -48 -15 0 -20 7 -20 28 0 44 22 54 43
20z"/>
<path d="M1590 380 l0 -50 35 0 c19 0 35 5 35 10 0 6 -14 10 -31 10 -39 0 -34
23 7 31 l29 6 -28 4 c-37 5 -38 22 -1 30 28 6 27 7 -8 8 l-38 1 0 -50z"/>
<path d="M1720 380 c0 -51 19 -72 21 -22 1 25 1 26 7 4 9 -29 24 -27 40 7 l12
26 -4 -28 c-2 -15 1 -30 5 -33 5 -3 9 18 9 45 0 60 -24 72 -36 19 l-7 -33 -9
33 c-14 52 -38 41 -38 -18z"/>
<path d="M1832 383 c3 -48 3 -48 41 -51 21 -2 37 1 37 7 0 6 -14 11 -31 11
-36 0 -35 21 2 31 l24 6 -25 4 c-34 5 -31 23 6 30 25 6 24 7 -14 8 l-43 1 3
-47z"/>
<path d="M1930 381 c0 -49 1 -51 29 -51 37 0 53 20 49 62 -3 30 -6 33 -40 36
l-38 3 0 -50z m58 1 c3 -27 0 -32 -17 -32 -17 0 -21 6 -21 36 0 28 3 35 18 32
11 -2 18 -14 20 -36z"/>
<path d="M2030 380 c0 -27 5 -50 10 -50 6 0 10 23 10 50 0 28 -4 50 -10 50 -5
0 -10 -22 -10 -50z"/>
<path d="M2170 380 c0 -27 5 -50 10 -50 6 0 10 23 10 50 0 28 -4 50 -10 50 -5
0 -10 -22 -10 -50z"/>
<path d="M2210 379 c0 -34 4 -48 11 -43 6 3 9 17 6 30 -6 33 5 30 25 -6 25
-44 38 -37 38 20 0 28 -4 50 -10 50 -5 0 -10 -15 -10 -32 l0 -33 -21 33 c-12
17 -25 32 -30 32 -5 0 -9 -23 -9 -51z"/>
<path d="M2317 383 c-9 -25 -14 -49 -11 -52 4 -3 9 0 11 7 3 6 15 12 27 12 12
0 28 -6 35 -12 11 -11 12 -8 7 14 -21 90 -43 100 -69 31z m43 -5 c0 -5 -6 -8
-14 -8 -9 0 -12 7 -9 21 4 16 8 17 14 7 5 -7 9 -16 9 -20z"/>
<path d="M2440 385 c0 -50 13 -62 55 -51 29 7 42 45 25 75 -8 15 -20 21 -45
21 -35 0 -35 0 -35 -45z m63 13 c14 -22 1 -48 -23 -48 -15 0 -20 7 -20 28 0
44 22 54 43 20z"/>
<path d="M2550 380 l0 -50 35 0 c19 0 35 5 35 10 0 6 -11 10 -25 10 -34 0 -32
28 3 33 l27 4 -27 2 c-17 0 -28 7 -28 15 0 8 12 17 28 19 22 3 20 4 -10 6
l-38 1 0 -50z"/>
<path d="M2640 380 c0 -27 5 -50 10 -50 6 0 10 9 10 19 0 13 8 21 23 23 16 2
23 11 25 31 3 25 1 27 -32 27 l-36 0 0 -50z m53 25 c1 -5 -6 -11 -15 -13 -11
-2 -18 3 -18 13 0 17 30 18 33 0z"/>
<path d="M2840 380 c0 -27 5 -50 10 -50 6 0 10 9 10 20 0 11 4 20 8 20 5 0 17
-9 27 -20 25 -28 41 -25 22 4 -11 16 -13 26 -5 34 20 20 1 42 -37 42 l-35 0 0
-50z m58 23 c2 -8 -5 -13 -17 -13 -12 0 -21 6 -21 16 0 18 31 15 38 -3z"/>
<path d="M2953 423 c13 -3 17 -15 17 -49 0 -24 5 -44 10 -44 6 0 10 20 10 45
0 38 3 45 19 45 16 0 21 -8 24 -47 l3 -48 2 53 2 52 -52 -1 c-29 -1 -45 -3
-35 -6z"/>
<path d="M3060 427 c0 -22 35 -97 44 -94 6 2 19 25 29 51 12 32 13 46 5 44 -6
-2 -17 -19 -23 -38 -12 -36 -18 -33 -29 13 -3 15 -11 27 -16 27 -6 0 -10 -1
-10 -3z"/>
<path d="M3158 383 c-9 -26 -15 -49 -14 -51 2 -2 13 3 25 10 17 10 25 10 41 0
16 -10 20 -10 20 2 0 25 -30 86 -43 86 -7 0 -20 -21 -29 -47z m42 1 c0 -8 -4
-14 -10 -14 -5 0 -10 9 -10 21 0 11 5 17 10 14 6 -3 10 -13 10 -21z"/>
</g>
</svg>
